<svg xmlns="http://www.w3.org/2000/svg" height="512" width="512"  xmlns:v="https://vecta.io/nano"><path d="M454.506 410.599C483.747 370.248 501 320.642 501 267c0-135.31-109.69-245-245-245S11 131.69 11 267c0 53.642 17.253 103.248 46.494 143.599z" fill="#b3e59f"/><path d="M369.98 182H142.02L57.494 410.599c33.125 45.71 81.648 79.521 137.957 93.84L256 471.758l60.549 32.681c56.309-14.318 104.833-48.129 137.958-93.84z" fill="#365e7d"/><path d="M369.98 182H142.02L57.494 410.599a246.41 246.41 0 0 0 43.072 45.783l6.293-17.02c8.852-23.94 37.552-33.574 59.056-19.825 21.01 13.433 44.276 25.313 69.87 34.504a59.64 59.64 0 0 0 20.216 3.52c6.913 0 13.715-1.185 20.214-3.519 67.139-24.11 118.259-66.714 154.667-107.337z" fill="#2b4d66"/><path d="M266.722 511.753l2.421-.106a244.62 244.62 0 0 0 47.405-7.208c2.092-5.231 25.552-64.896 25.552-110.001V182H169.899v212.438c0 45.105 23.459 104.77 25.552 110.001a244.64 244.64 0 0 0 47.406 7.208l2.421.106 3.897.148L256 512c2.283 0 4.556-.04 6.825-.099l3.897-.148z" fill="#faf5dc"/><path d="M172.508 423.63c19.261 11.749 40.323 22.169 63.277 30.411a59.64 59.64 0 0 0 20.216 3.52c6.913 0 13.715-1.185 20.214-3.519 22.946-8.24 44.018-18.642 63.274-30.385 1.608-9.956 2.613-19.898 2.613-29.219V182H169.899v212.438c0 9.312 1.003 19.245 2.609 29.192z" fill="#f5ebcd"/><path d="M457.887 1.467c38.05 8.556-66.446 133.679-66.446 133.679L325.935 24.581s93.903-31.67 131.952-23.114z" fill="#365e7d"/><path d="M419.015 66.981c-11.495-24.552-28.29-42.586-51.054-54.732-23.719 6.159-42.025 12.332-42.025 12.332l65.506 110.565s18.586-22.255 37.227-48.635l-9.654-19.53z" fill="#2b4d66"/><path d="M450.938 15.545c5.434 6.337-31.442 73.113-69.835 102.153L356.15 75.579s89.355-66.371 94.788-60.034z" fill="#df6b57"/><path d="M54.113 1.467c-38.05 8.556 66.446 133.679 66.446 133.679l65.506-110.565S92.162-7.089 54.113 1.467z" fill="#365e7d"/><path d="M92.985 66.981l-9.654 19.53c18.641 26.38 37.227 48.635 37.227 48.635l65.506-110.565s-18.307-6.173-42.025-12.332c-22.764 12.147-39.559 30.18-51.054 54.732z" fill="#2b4d66"/><path d="m61.062 15.545c-5.434 6.337 31.442 73.113 69.835 102.153l24.954-42.119c-.001 0-89.356-66.371-94.789-60.034z" fill="#df6b57"/><path d="M401.027 75.731C376.009 21.963 324.374 12 256 12s-120.009 9.963-145.027 63.731c-33.596 66.32-54.039 123.079-60.95 143.374-1.762 5.175-1.329 10.831 1.2 15.677 15.627 29.946 79.336 138.971 198.082 181.614 4.323 1.553 9.067 1.553 13.39 0 118.746-42.643 182.455-151.668 198.082-181.614a19.96 19.96 0 0 0 1.2-15.677c-6.911-20.295-27.354-77.054-60.95-143.374z" fill="#407093"/><path d="M174.962 21.08c-28.314 8.686-50.197 25.01-63.989 54.651-33.596 66.32-54.039 123.079-60.95 143.374-1.762 5.175-1.329 10.831 1.2 15.677 15.627 29.946 79.336 138.971 198.082 181.614 4.323 1.552 9.067 1.552 13.39 0 29.928-10.748 56.356-25.714 79.404-42.567C101.483 306.039 140.297 59.653 174.962 21.08z" fill="#365e7d"/><path d="M330.333 94.738c-16.277 10.623-28.035 30.895-36.35 51.834C287.98 113.223 272.515 37.399 256 37.399s-31.98 75.824-37.984 109.172c-8.315-20.938-20.073-41.21-36.35-51.834-39.484-25.769-77.427 74.464-89.851 113.241-1.57 4.901-1.191 10.202 1.056 14.832 11.627 23.957 54.915 101.324 152.88 159.95 6.303 3.772 14.192 3.772 20.496 0 97.965-58.626 141.254-135.994 152.88-159.95 2.247-4.63 2.626-9.931 1.056-14.832-12.423-38.776-50.366-139.01-89.85-113.24z" fill="#fff"/><path d="m150.679 97.597c-27.021 20.746-49.773 82.01-58.863 110.381-1.57 4.901-1.191 10.202 1.056 14.832 11.627 23.957 54.915 101.324 152.88 159.95 6.303 3.772 14.192 3.772 20.496 0 12.514-7.489 24.131-15.285 34.909-23.236-134.772-57.209-159.074-179.753-150.478-261.927z" fill="#faf5dc"/><circle cx="182.491" cy="167.845" fill="#365e7d" r="15"/><circle cx="182.491" cy="157.845" fill="#fff" r="7.5"/><circle cx="329.509" cy="167.845" fill="#365e7d" r="15"/><circle cx="329.509" cy="157.845" fill="#fff" r="7.5"/><ellipse cx="256" cy="317.037" fill="#eadbb7" rx="36.287" ry="28.368"/><path d="m314.509 264.086c0-42.86-26.195-97.491-58.509-97.491s-58.509 54.631-58.509 97.491 26.195 57.717 58.509 57.717 58.509-14.858 58.509-57.717z" fill="#faf5dc"/><path d="m233.779 264.086c0-34.458 16.934-76.518 40.365-91.686-5.713-3.698-11.81-5.805-18.144-5.805-32.313 0-58.509 54.631-58.509 97.491s26.195 57.718 58.509 57.718c6.335 0 12.43-.581 18.144-1.823-23.429-5.091-40.365-21.439-40.365-55.895z" fill="#f5ebcd"/><path d="m288.19 256.72c0 17.778-14.412 32.19-32.19 32.19s-32.19-14.412-32.19-32.19 64.38-17.778 64.38 0z" fill="#365e7d"/><path d="m247.628 244.199c0-.138.015-.268.023-.402-12.877 1.282-23.841 5.587-23.841 12.923 0 17.778 14.412 32.19 32.19 32.19 4.605 0 8.981-.974 12.943-2.716-12.426-6.393-21.315-23.282-21.315-41.995z" fill="#2b4d66"/></svg>